{"title":"Hunting Hitler S01E07 (2015) x264","uid":12936219,"size":384806940,"categoryP":"video","categoryS":"tv_shows","magnet":"?xt=urn:btih:08c4065cc6e374f593955efc401bb39a04a7ab47&amp;dn=Hunting+Hitler+S01E07+%282015%29+x264&amp;tr=udp%3A%2F%2Ftracker.leechers-paradise.org%3A6969&amp;tr=udp%3A%2F%2Fzer0day.ch%3A1337&amp;tr=udp%3A%2F%2Fopen.demonii.com%3A1337&amp;tr=udp%3A%2F%2Ftracker.coppersurfer.tk%3A6969&amp;tr=udp%3A%2F%2Fexodus.desync.com%3A6969","seeders":1,"leechers":0,"uploader":"Pyre8Storm","files":1,"time":1449583810,"description":"Hunting Hitler - Episode 7\r\n\r\nFollowing declassified FBI files that link Hitler’s U-boat unloading site to a massive German owned estate in the Southern Andes, the team uncovers the town of Bariloche and the Inalco House, where Hitler could have stayed.\r\n\r\nUsing network and financial analysis the team descends on Hotel Eden, a compound owned by two known and documented Nazi supporters, where an eyewitness claims to have seen Hitler, months after his death.\r\n\r\nScreens:\r\n \nhttp://extraimago.com/image/GVK\r\n\r\nFormat                                   : MPEG-4\r\nFormat profile                           : Base Media / Version 2\r\nCodec ID                                 : mp42\r\nFile size                                : 367 MiB\r\nDuration                                 : 41mn 14s\r\nOverall bit rate                         : 1 244 Kbps\r\nEncoded date                             : UTC 2015-12-08 11:42:14\r\nTagged date                              : UTC 2015-12-08 12:27:03\r\n\r\nVideo\r\nID                                       : 1\r\nFormat                                   : AVC\r\nFormat/Info                              : Advanced Video Codec\r\nFormat profile                           :   \r\nFormat settings, CABAC                   : Yes\r\nFormat settings, ReFrames                : 4 frames\r\nCodec ID                                 : avc1\r\nCodec ID/Info                            : Advanced Video Coding\r\nDuration                                 : 41mn 14s\r\nDuration_FirstFrame                      : 120ms\r\nBit rate                                 : 1 114 Kbps\r\nWidth                                    : 960 pixels\r\nHeight                                   : 540 pixels\r\nDisplay aspect ratio                     : 16:9\r\nFrame rate mode                          : Constant\r\nFrame rate                               : 25.000 fps\r\nColor space                              : YUV\r\nChroma subsampling                       : 4:2:0\r\nBit depth                                : 8 bits\r\nScan type                                : Progressive\r\nBits/(Pixel*Frame)                       : 0.086\r\nStream size                              : 328 MiB (89%)\r\nWriting library                          : x264 core 123 r2189 35cf912\r\n\r\nAudio\r\nID                                       : 2\r\nFormat                                   : AC-3\r\nFormat/Info                              : Audio Coding 3\r\nMode extension                           : CM (complete main)\r\nFormat settings, Endianness              : Big\r\nCodec ID                                 : ac-3\r\nDuration                                 : 41mn 14s\r\nDuration_FirstFrame                      : 160ms\r\nBit rate mode                            : Constant\r\nBit rate                                 : 128 Kbps\r\nChannel(s)                               : 2 channels\r\nChannel positions                        : Front: L R\r\nSampling rate                            : 48.0 KHz\r\nBit depth                                : 16 bits\r\nCompression mode                         : Lossy\r\nStream size                              : 37.7 MiB (10%)\r\nTitle                                    : Stereo\r\n\r\n\r\nPlease seed for others","torrent":{"xt":"urn:btih:08c4065cc6e374f593955efc401bb39a04a7ab47","amp;dn":"Hunting+Hitler+S01E07+%282015%29+x264","amp;tr":["udp%3A%2F%2Ftracker.leechers-paradise.org%3A6969","udp%3A%2F%2Fzer0day.ch%3A1337","udp%3A%2F%2Fopen.demonii.com%3A1337","udp%3A%2F%2Ftracker.coppersurfer.tk%3A6969","udp%3A%2F%2Fexodus.desync.com%3A6969"],"infoHash":"08c4065cc6e374f593955efc401bb39a04a7ab47","infoHashBuffer":{"type":"Buffer","data":[8,196,6,92,198,227,116,245,147,149,94,252,64,27,179,154,4,167,171,71]},"announce":[],"urlList":[]}}